0
SECTION
2
HEADER
9
$INSUNITS
70
4
9
$ACADVER
1
AC1014
9
$HANDSEED
5
FFFF
0
ENDSEC
0
SECTION
2
TABLES
0
TABLE
2
VPORT
5
8
100
AcDbSymbolTable
0
ENDTAB
0
TABLE
2
LTYPE
5
5
100
AcDbSymbolTable
0
LTYPE
5
14
100
AcDbSymbolTableRecord
100
AcDbLinetypeTableRecord
2
BYBLOCK
70
0
0
LTYPE
5
15
100
AcDbSymbolTableRecord
100
AcDbLinetypeTableRecord
2
BYLAYER
70
0
0
ENDTAB
0
TABLE
2
LAYER
5
2
100
AcDbSymbolTable
70
2
0
LAYER
5
50
100
AcDbSymbolTableRecord
100
AcDbLayerTableRecord
2
0
70
0
6
CONTINUOUS
0
ENDTAB
0
TABLE
2
STYLE
5
3
100
AcDbSymbolTable
70
1
0
STYLE
5
11
100
AcDbSymbolTableRecord
100
AcDbTextStyleTableRecord
2
STANDARD
70
0
0
ENDTAB
0
TABLE
2
VIEW
5
6
100
AcDbSymbolTable
70
0
0
ENDTAB
0
TABLE
2
UCS
5
7
100
AcDbSymbolTable
70
0
0
ENDTAB
0
TABLE
2
APPID
5
9
100
AcDbSymbolTable
70
2
0
APPID
5
12
100
AcDbSymbolTableRecord
100
AcDbRegAppTableRecord
2
ACAD
70
0
0
ENDTAB
0
TABLE
2
DIMSTYLE
5
A
100
AcDbSymbolTable
70
1
0
ENDTAB
0
TABLE
2
BLOCK_RECORD
5
1
100
AcDbSymbolTable
70
1
0
BLOCK_RECORD
5
1F
100
AcDbSymbolTableRecord
100
AcDbBlockTableRecord
2
*MODEL_SPACE
0
BLOCK_RECORD
5
1B
100
AcDbSymbolTableRecord
100
AcDbBlockTableRecord
2
*PAPER_SPACE
0
ENDTAB
0
ENDSEC
0
SECTION
2
BLOCKS
0
BLOCK
5
20
100
AcDbEntity
100
AcDbBlockBegin
2
*MODEL_SPACE
0
ENDBLK
5
21
100
AcDbEntity
100
AcDbBlockEnd
0
BLOCK
5
1C
100
AcDbEntity
100
AcDbBlockBegin
2
*PAPER_SPACE
0
ENDBLK
5
1D
100
AcDbEntity
100
AcDbBlockEnd
0
ENDSEC
0
SECTION
2
ENTITIES
0
LWPOLYLINE
5
100
100
AcDbEntity
8
0
100
AcDbPolyline
90
42
70
1
43
0.0
10
153
20
83.333333333333314
10
156
20
83.333333333333314
10
156.00000223517418
20
99.999999999999986
10
149.99999776482579
20
99.999999999999986
10
149.99999776482579
20
103.00000150412318
10
5.9999998935659358
20
103.00000003069634
10
5.9999999242623296
20
100.00000003504239
10
2.9999999999999991
20
100.00000003504239
10
3.0000000000000062
20
83.333333333333314
10
0
20
83.333333333333314
10
0
20
66.666666666666657
10
3.0000000000000049
20
66.666666666666657
10
3.0000000000000036
20
49.999999999999986
10
0
20
49.999999999999986
10
0
20
33.333333333333314
10
3.0000000000000027
20
33.333333333333321
10
3.0000000000000018
20
16.666666666666625
10
0
20
16.666666666666643
10
0
20
0
10
18.75
20
0
10
18.75
20
3.0000000000000004
10
37.5
20
3.0000000000000004
10
37.5
20
0
10
56.250000000000007
20
0
10
56.25
20
3.0000000000000004
10
75.000000000000014
20
3.0000000000000004
10
75.000000000000014
20
0
10
93.75
20
0
10
93.75
20
3.0000000000000004
10
112.5
20
3.0000000000000004
10
112.5
20
0
10
131.25
20
0
10
131.25000000000003
20
3.0000000000000004
10
153
20
3.0000000000000004
10
153
20
16.666666666666643
10
156
20
16.666666666666643
10
156
20
33.333333333333314
10
153
20
33.333333333333314
10
153
20
49.999999999999986
10
156
20
49.999999999999986
10
156
20
66.666666666666657
10
153
20
66.666666666666657
0
LWPOLYLINE
5
101
100
AcDbEntity
8
0
100
AcDbPolyline
90
52
70
1
43
0.0
10
-96.666666666666728
20
-29.781562546936652
10
-96.666666666666728
20
-33.000000000000583
10
-113.3333333333334
20
-33.000000000000753
10
-113.3333333333334
20
-30.000000000000103
10
-139.00000000000003
20
-30.000000000000103
10
-139.00000000000003
20
-48.750000000000142
10
-136.00000000000006
20
-48.750000000000142
10
-136.00000000000006
20
-67.500000000000142
10
-139.00000000000003
20
-67.500000000000142
10
-139.00000000000003
20
-86.250000000000142
10
-136.00000000000003
20
-86.250000000000142
10
-136.00000000000003
20
-105.00000000000014
10
-139.00000000000003
20
-105.00000000000014
10
-139.00000000000003
20
-123.75000000000017
10
-136.00000000000003
20
-123.75000000000017
10
-136.00000000000003
20
-142.50000000000017
10
-139.00000000000003
20
-142.50000000000017
10
-139.00000000000003
20
-161.25000000000014
10
-136
20
-161.25000000000014
10
-136
20
-183.00000000000017
10
-113.33333333333336
20
-183.00000000000017
10
-113.33333333333336
20
-186.00000000000017
10
-96.666666666666728
20
-186.00000000000017
10
-96.666666666666728
20
-183.00000000000017
10
-80.000000000000071
20
-183.00000000000011
10
-80.000000000000071
20
-186.00000000000017
10
-63.333333333333862
20
-186.00000000000017
10
-63.333333333333862
20
-183.00000000000017
10
-46.666666666666643
20
-183.00000000000011
10
-46.666666666666714
20
-186.00000000000017
10
-30.000000000000071
20
-186.00000000000017
10
-30.000000000000071
20
-161.25000000000014
10
-33.000000000000043
20
-161.25000000000014
10
-33.000000000000043
20
-142.50000000000014
10
-30.000000000000071
20
-142.50000000000014
10
-30.000000000000071
20
-123.75000000000014
10
-33.000000000000043
20
-123.75000000000014
10
-33.000000000000043
20
-105.00000000000011
10
-30.000000000000071
20
-105.00000000000011
10
-30.000000000000071
20
-86.250000000000114
10
-33.000000000000043
20
-86.250000000000114
10
-33.000000000000043
20
-67.500000000000114
10
-30.000000000000071
20
-67.500000000000114
10
-30.000000000000071
20
-48.750000000000107
10
-33.000000000000043
20
-48.750000000000107
10
-33.000000000000043
20
-33.000000000000071
10
-46.666666666666785
20
-33.000000000000199
10
-46.666666666666742
20
-30.006039534769965
10
-63.3333333333334
20
-30.00603953476983
10
-63.333333333333414
20
-33.000000000000099
10
-80.000000000000071
20
-33.000000000000071
10
-80.000000000000114
20
-29.781562546936655
0
LWPOLYLINE
5
102
100
AcDbEntity
8
0
100
AcDbPolyline
90
58
70
1
43
0.0
10
259.41666666666652
20
-186.00000000000009
10
259.41666666666652
20
-183.00000000000011
10
242.74999999999983
20
-183.00000000000011
10
242.74999999999983
20
-186.00000000000009
10
226.08333333333314
20
-186.00000000000009
10
226.08333333333314
20
-183.00000000000011
10
209.41666666705461
20
-183.00000000000011
10
209.41666666705461
20
-186.00000000000009
10
192.74999999999977
20
-186.00000000000009
10
192.74999999999977
20
-161.50000000000006
10
195.74999999999983
20
-161.50000000000006
10
195.74999999999983
20
-142.5
10
192.7499999999998
20
-142.49999999999997
10
192.7499999999998
20
-123.99999999999999
10
195.74999999999983
20
-123.99999999999999
10
195.74999999999983
20
-105
10
192.7499999999998
20
-105
10
192.7499999999998
20
-86.499999999999986
10
195.74999999999983
20
-86.499999999999986
10
195.74999999999983
20
-67.5
10
192.74999999999983
20
-67.5
10
192.74999999999983
20
-48.999999999999986
10
195.74999999999983
20
-48.999999999999986
10
195.74999999999983
20
-32.999999999999972
10
195.74999999999983
20
-30
10
209.41666666705461
20
-30
10
209.41666666705461
20
-33.000000000000199
10
226.08333333333323
20
-32.999999999999972
10
226.08333333333317
20
-30
10
242.74999999999983
20
-30
10
242.74999999999983
20
-32.999999999999972
10
259.41666666666652
20
-32.999999999999915
10
259.41666666666652
20
-30
10
276.0833333333332
20
-30
10
276.0833333333332
20
-32.999999999999972
10
292.74999999999989
20
-32.999999999999858
10
292.74999999999989
20
-30.0000004470348
10
301.74999999999989
20
-30.0000004470348
10
301.74999999999989
20
-32.999999999999936
10
298.74999999999989
20
-32.999999999999936
10
298.74999999999989
20
-48.749999999999964
10
301.74999999999989
20
-48.749999999999964
10
301.74999999999989
20
-67.499999999999972
10
298.74999999999989
20
-67.499999999999972
10
298.74999999999989
20
-86.249999999999972
10
301.74999999999989
20
-86.249999999999972
10
301.74999999999989
20
-104.99999999999997
10
298.74999999999989
20
-104.99999999999997
10
298.74999999999989
20
-123.74999999999997
10
301.74999999999989
20
-123.74999999999997
10
301.74999999999989
20
-142.49999999999997
10
298.74999999999989
20
-142.49999999999997
10
298.74999999999989
20
-161.25000000000003
10
301.74999999999989
20
-161.25000000000003
10
301.75000149011601
20
-183.00000000000009
10
298.74999999999989
20
-183.00000000000009
10
276.0833333333332
20
-183.00000000000011
10
276.0833333333332
20
-186.00000000000009
0
LWPOLYLINE
5
103
100
AcDbEntity
8
0
100
AcDbPolyline
90
54
70
1
43
0.0
10
93.749999999999986
20
-318.99999551475048
10
93.749999999999986
20
-315.99999551475048
10
112.49999999999999
20
-315.99999551475048
10
112.49999999999999
20
-318.99999551475048
10
131.24999999999997
20
-318.99999551475048
10
131.25
20
-315.99999551475048
10
146.99999999999997
20
-315.99999551475048
10
155.99999999999997
20
-315.99999551475048
10
156
20
-293.33333333333337
10
153
20
-293.33333333333337
10
153
20
-276.66666666666669
10
156
20
-276.66666666666669
10
156
20
-260
10
153
20
-260
10
153
20
-243.33333333333337
10
156
20
-243.33333333333337
10
156
20
-226.66666666666669
10
153
20
-226.66666666666669
10
153
20
-213
10
153
20
-209.99999850988388
10
131.25
20
-210
10
131.25
20
-213
10
112.5
20
-213
10
112.5
20
-210
10
93.75
20
-210
10
93.75
20
-213
10
75.000000000000014
20
-213
10
75.000000000000014
20
-210.00000532184328
10
56.25
20
-210.00000709579101
10
56.25
20
-213
10
37.500000000000014
20
-213
10
37.5
20
-210.00000886973879
10
18.75
20
-210.00001064368655
10
18.75
20
-213
10
3.0000000000000071
20
-213
10
3.0000000000000062
20
-226.66666666666669
10
0
20
-226.66666666666669
10
0
20
-243.33333333333337
10
3.0000000000000049
20
-243.33333333333337
10
3.0000000000000036
20
-260
10
0
20
-260
10
0
20
-276.66666666666669
10
3.0000000000000027
20
-276.66666666666669
10
3.0000000000000018
20
-293.33333333333337
10
0
20
-293.33333333333337
10
-1.7763568394002505e-14
20
-318.99999551475048
10
18.749999999999982
20
-318.99999551475048
10
18.749999999999982
20
-315.99999551475048
10
37.499999999999986
20
-315.99999551475048
10
37.499999999999986
20
-318.99999551475048
10
56.249999999999993
20
-318.99999551475048
10
56.249999999999986
20
-315.99999551475048
10
74.999999999999986
20
-315.99999551475048
10
74.999999999999986
20
-318.99999551475048
0
LWPOLYLINE
5
104
100
AcDbEntity
8
0
100
AcDbPolyline
90
62
70
1
43
0.0
10
3.0000000000000071
20
-186
10
3.0000000000000071
20
-177
10
3.0000000000000067
20
-161.25000000000014
10
0
20
-161.25000000000014
10
0
20
-142.50000000000014
10
3.0000000000000067
20
-142.50000000000014
10
3.0000000447034836
20
-123.75000000000014
10
0
20
-123.75000000000014
10
0
20
-105
10
3.0000000000000036
20
-105
10
3.0000000000000027
20
-86.250000000000114
10
0
20
-86.250000000000114
10
0
20
-67.500000000000114
10
3.0000000000000022
20
-67.500000000000114
10
3.0000000447034836
20
-48.750000000000107
10
0
20
-48.750000000000128
10
0
20
-33
10
3.0000000000000004
20
-33
10
18.75
20
-33
10
18.75
20
-30
10
37.5
20
-30
10
37.5
20
-33.000000491738319
10
56.250000000000007
20
-33.000000491738319
10
56.250000000000007
20
-30
10
74.999999999999972
20
-30
10
74.999999999999986
20
-33
10
93.75
20
-33
10
93.75
20
-30
10
112.5
20
-30
10
112.5
20
-33.000000491738319
10
131.25
20
-33.000000491738319
10
131.25
20
-30
10
156
20
-30
10
156
20
-48.999999999999986
10
153
20
-48.999999999999986
10
153
20
-67.5
10
156
20
-67.5
10
156
20
-86.499999999999986
10
153
20
-86.499999999999986
10
153
20
-105
10
156
20
-105
10
156
20
-123.99999999999999
10
153
20
-123.99999999999999
10
153
20
-142.5
10
156
20
-142.5
10
156
20
-161.50000000000006
10
153
20
-161.50000000000006
10
153
20
-183
10
131.25
20
-183.00000000000017
10
131.25
20
-186
10
112.5
20
-186
10
112.5
20
-183.00000000000017
10
93.75
20
-183.00000000000017
10
93.75
20
-186
10
74.999999999999872
20
-186
10
74.999999999999858
20
-183.00000000000017
10
56.25
20
-183.00000000000017
10
56.25
20
-186
10
37.499999999999787
20
-186
10
37.499999999999751
20
-183.00000000000017
10
18.75
20
-183.00000000000017
10
18.75
20
-186
0
LWPOLYLINE
5
105
100
AcDbEntity
8
0
100
AcDbPolyline
90
4
70
1
43
0.0
10
-130.00000000000006
20
-48.750000000000149
10
-133.00001099847543
20
-48.750000000000149
10
-133.00001284621928
20
-33.000000000000085
10
-130.00000000000006
20
-33.000000000000085
0
LWPOLYLINE
5
106
100
AcDbEntity
8
0
100
AcDbPolyline
90
4
70
1
43
0.0
10
-129.99999999999994
20
-67.499998754430123
10
-133.00000879878047
20
-67.499998754430123
10
-133.00000659908449
20
-86.250000000000142
10
-130.00000000000102
20
-86.250000000000199
0
LWPOLYLINE
5
107
100
AcDbEntity
8
0
100
AcDbPolyline
90
4
70
1
43
0.0
10
-130.00000000000136
20
-104.99999966678116
10
-133.00000439939035
20
-104.99999966678118
10
-133.00000219969485
20
-123.75000000000013
10
-130.00000000000006
20
-123.75000000000017
0
LWPOLYLINE
5
108
100
AcDbEntity
8
0
100
AcDbPolyline
90
4
70
1
43
0.0
10
-130.00000000000006
20
-142.50000000000023
10
-133.00000000000006
20
-142.50000000000017
10
-132.99999780030527
20
-161.25000000000011
10
-130.00000000000006
20
-161.25000000000014
0
LWPOLYLINE
5
109
100
AcDbEntity
8
0
100
AcDbPolyline
90
4
70
1
43
0.0
10
292.74999999999983
20
-48.749999999999964
10
295.74999999999983
20
-48.749999999999964
10
295.74999999999983
20
-67.499999999999972
10
292.74999999999983
20
-67.499999999999972
0
LWPOLYLINE
5
110
100
AcDbEntity
8
0
100
AcDbPolyline
90
4
70
1
43
0.0
10
292.74999999999983
20
-105
10
295.74999999999983
20
-104.99999999999999
10
295.74999999999983
20
-86.249999999999972
10
292.74999999999983
20
-86.249999999999972
0
LWPOLYLINE
5
111
100
AcDbEntity
8
0
100
AcDbPolyline
90
4
70
1
43
0.0
10
292.74999999999983
20
-123.74999999999997
10
295.74999999999983
20
-123.74999999999997
10
295.74999999999983
20
-142.49999999999997
10
292.74999999999983
20
-142.49999999999997
0
LWPOLYLINE
5
112
100
AcDbEntity
8
0
100
AcDbPolyline
90
4
70
1
43
0.0
10
292.74999999999983
20
-161.25000000000003
10
295.74999999999983
20
-161.25000000000003
10
295.74999999999983
20
-180.00000000000006
10
292.74999999999983
20
-180.00000000000006
0
LWPOLYLINE
5
113
100
AcDbEntity
8
0
100
AcDbPolyline
90
20
70
1
43
0.0
10
365
20
-30
10
362
20
-30
10
362
20
-48.749999999999964
10
359
20
-48.749999999999943
10
359
20
-67.499999999999972
10
362
20
-67.500000005817697
10
362
20
-86.250000001826166
10
359
20
-86.249999999999972
10
359
20
-104.99999999999999
10
362
20
-105.00000000182624
10
362
20
-123.74999999783475
10
359
20
-123.74999999999997
10
359
20
-142.49999999999997
10
362
20
-142.49999999994392
10
362
20
-161.25000000000003
10
359
20
-161.25000000000003
10
359
20
-180.00000000000006
10
362
20
-180.00000000000006
10
362
20
-186
10
365
20
-186
0
LINE
5
114
100
AcDbEntity
8
0
100
AcDbLine
10
365.00000543892384
20
-32.999999999999936
30
0
11
365.00000543892384
21
-32.999999999999936
31
0
0
LWPOLYLINE
5
115
100
AcDbEntity
8
0
100
AcDbPolyline
90
4
70
1
43
0.0
10
152.99999999999997
20
-309.99999551475048
10
149.99999999999997
20
-309.99999551475048
10
149.99999999999997
20
-312.99999551475048
10
152.99999999999997
20
-312.99999551475048
0
LWPOLYLINE
5
116
100
AcDbEntity
8
0
100
AcDbPolyline
90
4
70
1
43
0.0
10
5.9999999999999876
20
-310.00000461935997
10
2.9999999999999867
20
-310.00000461935997
10
2.9999999999999867
20
-313.00000461935997
10
5.9999999999999876
20
-313.00000461935997
0
LWPOLYLINE
5
117
100
AcDbEntity
8
0
100
AcDbPolyline
90
20
70
1
43
0.0
10
-169.13856927860979
20
-30.000000000000103
10
-172.13856927860979
20
-30.000000000000107
10
-172.13856927860979
20
-186.00000000000009
10
-169.13856927860979
20
-186.00000000000009
10
-169.13856927860979
20
-161.25000000000014
10
-166.13856927860979
20
-161.25000000000014
10
-166.13856927860979
20
-142.50000000000017
10
-169.13856927860979
20
-142.50000000000017
10
-169.13856927860979
20
-123.75000000000017
10
-166.13856927860979
20
-123.75000000000017
10
-166.13856927860979
20
-105.00000000000013
10
-169.13856927860979
20
-105.00000000000014
10
-169.13856927860979
20
-86.250000000000142
10
-166.13856927860979
20
-86.250000000000142
10
-166.13856927860979
20
-67.500000000000142
10
-169.13856927860979
20
-67.500000000000142
10
-169.13856927860979
20
-48.750000000000142
10
-166.13856927860979
20
-48.750000000000142
10
-166.13856927860979
20
-33.000000000000085
10
-169.13856927860979
20
-33.000000000000085
0
LWPOLYLINE
5
118
100
AcDbEntity
8
0
100
AcDbPolyline
90
57
70
1
43
0.0
10
150.00000000000003
20
-354.99999551475048
10
6.0000000000000009
20
-354.99999551475048
10
5.9999999999999964
20
-504.99999551475048
10
3.0000000000000075
20
-504.99999551475048
10
3.0000000000000053
20
-486.24999551475059
10
0
20
-486.24999551475059
10
0
20
-467.49999551475059
10
3.0000000000000053
20
-467.49999551475059
10
3.0000000447034836
20
-448.74999551475048
10
0
20
-448.74999551475048
10
0
20
-429.99999551475048
10
3.0000000000000036
20
-429.99999551475048
10
3.0000000000000031
20
-411.24999551475048
10
0
20
-411.24999551475048
10
0
20
-392.49999551475048
10
3.0000000000000022
20
-392.49999551475048
10
3.0000000000000018
20
-373.74999551475048
10
0
20
-373.74999551475048
10
0
20
-351.99999551475048
10
3.0000000000000004
20
-351.99999551475048
10
18.749999999999982
20
-351.99999551475048
10
18.749999999999982
20
-348.99999551475048
10
37.499999999999986
20
-348.99999551475048
10
37.499999999999986
20
-351.99999551475048
10
56.249999999999993
20
-351.99999551475048
10
56.249999999999993
20
-348.99999551475048
10
74.999999999999986
20
-348.99999551475048
10
74.999999999999986
20
-351.99999551475048
10
93.749999999999986
20
-351.99999551475048
10
93.749999999999986
20
-348.99999551475048
10
112.49999999999999
20
-348.99999551475048
10
112.49999999999999
20
-351.99999551475048
10
131.24999999999997
20
-351.99999551475048
10
131.25
20
-348.99999551475048
10
153
20
-348.99999551475048
10
156.00000232458115
20
-349.00000520050526
10
156.00000232458115
20
-352.00000524520874
10
153
20
-352.00000524520874
10
153
20
-354.99999551475048
10
153
20
-373.74999551475048
10
156
20
-373.74999551475048
10
156
20
-392.49999551475048
10
153
20
-392.49999551475048
10
153
20
-411.24999551475048
10
156
20
-411.24999551475048
10
156
20
-429.99999551475048
10
153
20
-429.99999551475048
10
153
20
-448.74999551475048
10
156
20
-448.74999551475048
10
156
20
-467.49999551475059
10
153
20
-467.49999551475059
10
153
20
-486.24999551475059
10
156
20
-486.24999551475059
10
156
20
-501.99999551475054
10
153
20
-501.99999551475054
10
153
20
-504.99999551475048
10
150.00000000000003
20
-504.99999551475048
0
LWPOLYLINE
5
119
100
AcDbEntity
8
0
100
AcDbPolyline
90
18
70
1
43
0.0
10
345.74999999999977
20
-210
10
192.74999999999977
20
-210
10
192.74999999999977
20
-360
10
342.74999999999977
20
-360
10
342.74999999999977
20
-341.25
10
345.74999999999977
20
-341.25
10
345.74999999999977
20
-322.5
10
342.74999999999977
20
-322.5
10
342.74999999999977
20
-303.75
10
345.74999999999977
20
-303.75
10
345.74999999999977
20
-285
10
342.74999999999977
20
-285
10
342.74999999999977
20
-266.25
10
345.74999999999977
20
-266.25
10
345.74999999999977
20
-247.5
10
342.74999999999977
20
-247.5
10
342.74999999999977
20
-228.75
10
345.74999999999977
20
-228.75
0
LWPOLYLINE
5
120
100
AcDbEntity
8
0
100
AcDbPolyline
90
4
70
1
43
0.0
10
-35.260266286966626
20
-210
10
-41.26026628696664
20
-210
10
-41.26026628696664
20
-351
10
-35.260266286966626
20
-351
0
LWPOLYLINE
5
121
100
AcDbEntity
8
0
100
AcDbPolyline
90
20
70
1
43
0.0
10
369.74999999999977
20
-322.5
10
372.74999999999977
20
-322.5
10
372.74999999999977
20
-341.25
10
369.74999999999977
20
-341.25
10
369.74999999999977
20
-360
10
372.74999999999977
20
-360
10
372.74999999999977
20
-357
10
375.74999999999983
20
-357
10
375.74999999999983
20
-213.00000317394733
10
372.74999999999977
20
-213.00000317394733
10
372.74999999999983
20
-228.74999999999994
10
369.74999999999989
20
-228.74999999999994
10
369.74999999999989
20
-247.49999999999994
10
372.74999999999983
20
-247.49999999999994
10
372.74999999999983
20
-266.25
10
369.74999999999989
20
-266.25
10
369.74999999999977
20
-285
10
372.74999999999977
20
-285
10
372.74999999999977
20
-303.75
10
369.74999999999977
20
-303.75
0
ENDSEC
0
SECTION
2
OBJECTS
0
DICTIONARY
5
C
100
AcDbDictionary
3
ACAD_GROUP
350
D
3
ACAD_MLINESTYLE
350
17
0
DICTIONARY
5
D
100
AcDbDictionary
0
DICTIONARY
5
1A
330
C
100
AcDbDictionary
0
DICTIONARY
5
17
100
AcDbDictionary
0
ENDSEC
0
EOF
